<svg width="21" height="21" viewBox="0 0 21 21" fill="none" xmlns="http://www.w3.org/2000/svg">
<path d="M13.4574 10.8311L14.7199 17.9361C14.734 18.0197 14.7223 18.1057 14.6862 18.1825C14.6502 18.2593 14.5915 18.3233 14.5181 18.3659C14.4447 18.4085 14.3601 18.4276 14.2755 18.4208C14.1909 18.414 14.1105 18.3815 14.0449 18.3277L11.0615 16.0886C10.9175 15.981 10.7425 15.9228 10.5628 15.9228C10.383 15.9228 10.208 15.981 10.064 16.0886L7.07568 18.3269C7.01012 18.3806 6.92974 18.413 6.84526 18.4198C6.76079 18.4267 6.67625 18.4076 6.6029 18.3651C6.52956 18.3226 6.47091 18.2588 6.43478 18.1822C6.39865 18.1055 6.38676 18.0197 6.40068 17.9361L7.66235 10.8311" stroke="#16A34A" stroke-width="1.66667" stroke-linecap="round" stroke-linejoin="round"/>
<path d="M10.5601 11.7568C13.3215 11.7568 15.5601 9.51826 15.5601 6.75684C15.5601 3.99541 13.3215 1.75684 10.5601 1.75684C7.79863 1.75684 5.56006 3.99541 5.56006 6.75684C5.56006 9.51826 7.79863 11.7568 10.5601 11.7568Z" stroke="#16A34A" stroke-width="1.66667" stroke-linecap="round" stroke-linejoin="round"/>
</svg>
