<svg width="32" height="33" viewBox="0 0 32 33" fill="none" xmlns="http://www.w3.org/2000/svg">
<path d="M14.6667 29.7536C15.0721 29.9877 15.5319 30.1109 16 30.1109C16.4681 30.1109 16.9279 29.9877 17.3333 29.7536L26.6667 24.4203C27.0717 24.1865 27.408 23.8503 27.6421 23.4454C27.8761 23.0406 27.9995 22.5813 28 22.1136V11.447C27.9995 10.9793 27.8761 10.5201 27.6421 10.1152C27.408 9.71033 27.0717 9.37412 26.6667 9.14031L17.3333 3.80697C16.9279 3.57292 16.4681 3.44971 16 3.44971C15.5319 3.44971 15.0721 3.57292 14.6667 3.80697L5.33333 9.14031C4.92835 9.37412 4.59197 9.71033 4.35795 10.1152C4.12392 10.5201 4.00048 10.9793 4 11.447V22.1136C4.00048 22.5813 4.12392 23.0406 4.35795 23.4454C4.59197 23.8503 4.92835 24.1865 5.33333 24.4203L14.6667 29.7536Z" stroke="#16A34A" stroke-width="2.66667" stroke-linecap="round" stroke-linejoin="round"/>
<path d="M16 30.1136V16.7803" stroke="#16A34A" stroke-width="2.66667" stroke-linecap="round" stroke-linejoin="round"/>
<path d="M4.38672 10.1138L16.0001 16.7804L27.6134 10.1138" stroke="#16A34A" stroke-width="2.66667" stroke-linecap="round" stroke-linejoin="round"/>
<path d="M10 6.47363L22 13.3403" stroke="#16A34A" stroke-width="2.66667" stroke-linecap="round" stroke-linejoin="round"/>
</svg>
