<svg width="21" height="21" viewBox="0 0 21 21" fill="none" xmlns="http://www.w3.org/2000/svg">
<path d="M2.9934 13.7082C3.11593 14.0173 3.14321 14.356 3.07173 14.6807L2.18423 17.4224C2.15564 17.5615 2.16303 17.7055 2.20571 17.8409C2.2484 17.9762 2.32495 18.0985 2.42812 18.196C2.53129 18.2935 2.65766 18.363 2.79523 18.398C2.93281 18.4329 3.07704 18.4322 3.21423 18.3957L6.0584 17.5641C6.36483 17.5033 6.68218 17.5299 6.97423 17.6407C8.75372 18.4718 10.7695 18.6476 12.666 18.1372C14.5625 17.6268 16.2178 16.463 17.3398 14.8511C18.4618 13.2392 18.9785 11.2828 18.7986 9.32704C18.6188 7.37132 17.754 5.54197 16.3568 4.16174C14.9596 2.78152 13.1198 1.93911 11.1621 1.78316C9.20429 1.62721 7.25435 2.16773 5.65627 3.30936C4.05819 4.45099 2.91468 6.12037 2.42748 8.02294C1.94028 9.92552 2.14071 11.939 2.9934 13.7082Z" stroke="#16A34A" stroke-width="1.66667" stroke-linecap="round" stroke-linejoin="round"/>
</svg>
