<svg width="25" height="25" viewBox="0 0 25 25" fill="none" xmlns="http://www.w3.org/2000/svg">
<path d="M2.62988 10C2.6299 8.88724 2.96748 7.80062 3.59802 6.8837C4.22856 5.96678 5.1224 5.2627 6.16149 4.86444C7.20058 4.46618 8.33604 4.39248 9.4179 4.65308C10.4998 4.91368 11.4771 5.49632 12.2209 6.32404C12.2733 6.38005 12.3366 6.42471 12.407 6.45524C12.4773 6.48577 12.5532 6.50152 12.6299 6.50152C12.7066 6.50152 12.7825 6.48577 12.8528 6.45524C12.9232 6.42471 12.9865 6.38005 13.0389 6.32404C13.7803 5.49094 14.7579 4.90341 15.8415 4.63964C16.9251 4.37588 18.0634 4.44839 19.1048 4.84752C20.1461 5.24666 21.0413 5.95349 21.671 6.87394C22.3007 7.79439 22.6352 8.8848 22.6299 10C22.6299 12.29 21.1299 14 19.6299 15.5L14.1379 20.813C13.9516 21.027 13.7218 21.199 13.4639 21.3173C13.206 21.4357 12.9259 21.4979 12.6422 21.4997C12.3584 21.5015 12.0775 21.4429 11.8182 21.3278C11.5588 21.2127 11.3269 21.0437 11.1379 20.832L5.62988 15.5C4.12988 14 2.62988 12.3 2.62988 10Z" stroke="#16A34A" stroke-width="2" stroke-linecap="round" stroke-linejoin="round"/>
</svg>
