<svg width="25" height="25" viewBox="0 0 25 25" fill="none" xmlns="http://www.w3.org/2000/svg">
<path d="M12.1201 16.4707H12.1301" stroke="#16A34A" stroke-width="2" stroke-linecap="round" stroke-linejoin="round"/>
<path d="M16.1201 16.4707H16.1301" stroke="#16A34A" stroke-width="2" stroke-linecap="round" stroke-linejoin="round"/>
<path d="M3.12012 19.4707C3.12012 20.0011 3.33083 20.5098 3.7059 20.8849C4.08098 21.26 4.58968 21.4707 5.12012 21.4707H19.1201C19.6506 21.4707 20.1593 21.26 20.5343 20.8849C20.9094 20.5098 21.1201 20.0011 21.1201 19.4707V8.9707C21.1202 8.881 21.0962 8.79293 21.0505 8.71572C21.0049 8.6385 20.9393 8.57499 20.8607 8.53184C20.782 8.48869 20.6932 8.46748 20.6036 8.47045C20.5139 8.47342 20.4267 8.50045 20.3511 8.5487L15.8891 11.3927C15.8135 11.441 15.7263 11.468 15.6367 11.471C15.547 11.4739 15.4582 11.4527 15.3796 11.4096C15.3009 11.3664 15.2354 11.3029 15.1897 11.2257C15.1441 11.1485 15.12 11.0604 15.1201 10.9707V8.9707C15.1202 8.881 15.0962 8.79293 15.0505 8.71572C15.0049 8.6385 14.9393 8.57499 14.8607 8.53184C14.782 8.48869 14.6932 8.46748 14.6036 8.47045C14.5139 8.47342 14.4267 8.50045 14.3511 8.5487L9.89012 11.3927C9.81449 11.4412 9.72719 11.4685 9.63739 11.4716C9.54759 11.4747 9.45861 11.4535 9.37981 11.4103C9.30102 11.3672 9.23531 11.3035 9.18961 11.2262C9.14391 11.1488 9.11991 11.0606 9.12012 10.9707V5.4707C9.12012 4.94027 8.9094 4.43156 8.53433 4.05649C8.15926 3.68142 7.65055 3.4707 7.12012 3.4707H5.12012C4.58968 3.4707 4.08098 3.68142 3.7059 4.05649C3.33083 4.43156 3.12012 4.94027 3.12012 5.4707V19.4707Z" stroke="#16A34A" stroke-width="2" stroke-linecap="round" stroke-linejoin="round"/>
<path d="M8.12012 16.4707H8.13012" stroke="#16A34A" stroke-width="2" stroke-linecap="round" stroke-linejoin="round"/>
</svg>
