<svg width="21" height="21" viewBox="0 0 21 21" fill="none" xmlns="http://www.w3.org/2000/svg">
<path d="M16.9466 10.9229C16.9466 15.0896 14.0299 17.1729 10.5633 18.3812C10.3817 18.4427 10.1846 18.4398 10.0049 18.3729C6.52995 17.1729 3.61328 15.0896 3.61328 10.9229V5.08957C3.61328 4.86855 3.70108 4.65659 3.85736 4.50031C4.01364 4.34403 4.2256 4.25623 4.44661 4.25623C6.11328 4.25623 8.19661 3.25623 9.64661 1.98957C9.82316 1.83873 10.0477 1.75586 10.2799 1.75586C10.5122 1.75586 10.7367 1.83873 10.9133 1.98957C12.3716 3.26457 14.4466 4.25623 16.1133 4.25623C16.3343 4.25623 16.5463 4.34403 16.7025 4.50031C16.8588 4.65659 16.9466 4.86855 16.9466 5.08957V10.9229Z" stroke="#16A34A" stroke-width="1.66667" stroke-linecap="round" stroke-linejoin="round"/>
<path d="M7.77979 10.0895L9.44645 11.7562L12.7798 8.42285" stroke="#16A34A" stroke-width="1.66667" stroke-linecap="round" stroke-linejoin="round"/>
</svg>
