<svg width="32" height="33" viewBox="0 0 32 33" fill="none" xmlns="http://www.w3.org/2000/svg">
<path d="M15.4159 4.69474C15.4735 4.59021 15.558 4.50305 15.6607 4.44234C15.7635 4.38163 15.8806 4.34961 15.9999 4.34961C16.1192 4.34961 16.2364 4.38163 16.3391 4.44234C16.4418 4.50305 16.5264 4.59021 16.5839 4.69474L20.5199 12.1667C20.6138 12.3398 20.7448 12.4898 20.9035 12.6062C21.0623 12.7226 21.2448 12.8024 21.438 12.8399C21.6313 12.8774 21.8304 12.8716 22.0212 12.823C22.2119 12.7744 22.3895 12.6841 22.5412 12.5587L28.2439 7.6734C28.3534 7.58436 28.4883 7.53236 28.6292 7.52487C28.7701 7.51738 28.9098 7.5548 29.028 7.63173C29.1463 7.70866 29.2372 7.82115 29.2875 7.95299C29.3378 8.08483 29.3449 8.22923 29.3079 8.3654L25.5292 22.0267C25.4521 22.3063 25.2859 22.5531 25.0559 22.7297C24.8259 22.9063 24.5446 23.0031 24.2546 23.0054H7.74658C7.45636 23.0034 7.17473 22.9067 6.94444 22.7301C6.71415 22.5535 6.54777 22.3065 6.47058 22.0267L2.69325 8.36674C2.65625 8.23056 2.66341 8.08616 2.7137 7.95432C2.764 7.82248 2.85482 7.71 2.97312 7.63306C3.09141 7.55613 3.23106 7.51871 3.37197 7.5262C3.51288 7.53369 3.64778 7.5857 3.75725 7.67474L9.45858 12.5601C9.61031 12.6855 9.78793 12.7757 9.97867 12.8243C10.1694 12.8729 10.3685 12.8787 10.5618 12.8412C10.755 12.8037 10.9376 12.7239 11.0963 12.6076C11.255 12.4912 11.3861 12.3411 11.4799 12.1681L15.4159 4.69474Z" stroke="white" stroke-width="2.66667" stroke-linecap="round" stroke-linejoin="round"/>
<path d="M6.6665 28.3398H25.3332" stroke="white" stroke-width="2.66667" stroke-linecap="round" stroke-linejoin="round"/>
</svg>
