<svg width="32" height="33" viewBox="0 0 32 33" fill="none" xmlns="http://www.w3.org/2000/svg">
<path d="M14.6665 23.0062L17.3332 25.6729C17.5958 25.9355 17.9076 26.1438 18.2508 26.286C18.5939 26.4281 18.9617 26.5013 19.3332 26.5013C19.7046 26.5013 20.0724 26.4281 20.4156 26.286C20.7587 26.1438 21.0705 25.9355 21.3332 25.6729C21.5958 25.4102 21.8042 25.0984 21.9463 24.7552C22.0884 24.4121 22.1616 24.0443 22.1616 23.6729C22.1616 23.3014 22.0884 22.9336 21.9463 22.5905C21.8042 22.2473 21.5958 21.9355 21.3332 21.6729" stroke="white" stroke-width="2.66667" stroke-linecap="round" stroke-linejoin="round"/>
<path d="M18.6665 19.0062L21.9998 22.3395C22.5302 22.87 23.2497 23.168 23.9998 23.168C24.75 23.168 25.4694 22.87 25.9998 22.3395C26.5302 21.8091 26.8282 21.0897 26.8282 20.3395C26.8282 19.5894 26.5302 18.87 25.9998 18.3395L20.8265 13.1662C20.0765 12.4171 19.0598 11.9964 17.9998 11.9964C16.9398 11.9964 15.9231 12.4171 15.1731 13.1662L13.9998 14.3395C13.4694 14.87 12.75 15.168 11.9998 15.168C11.2497 15.168 10.5302 14.87 9.99981 14.3395C9.46938 13.8091 9.17139 13.0897 9.17139 12.3395C9.17139 11.5894 9.46938 10.87 9.99981 10.3395L13.7465 6.59287C14.9628 5.37973 16.549 4.60694 18.254 4.39684C19.959 4.18673 21.6854 4.55131 23.1598 5.43287L23.7865 5.80621C24.3542 6.14885 25.0292 6.26769 25.6798 6.13954L27.9998 5.67287" stroke="white" stroke-width="2.66667" stroke-linecap="round" stroke-linejoin="round"/>
<path d="M27.9998 4.33984L29.3332 19.0065H26.6665" stroke="white" stroke-width="2.66667" stroke-linecap="round" stroke-linejoin="round"/>
<path d="M3.99984 4.33984L2.6665 19.0065L11.3332 27.6732C11.8636 28.2036 12.583 28.5016 13.3332 28.5016C14.0833 28.5016 14.8027 28.2036 15.3332 27.6732C15.8636 27.1427 16.1616 26.4233 16.1616 25.6732C16.1616 24.923 15.8636 24.2036 15.3332 23.6732" stroke="white" stroke-width="2.66667" stroke-linecap="round" stroke-linejoin="round"/>
<path d="M4 5.67285H14.6667" stroke="white" stroke-width="2.66667" stroke-linecap="round" stroke-linejoin="round"/>
</svg>
