<svg width="20" height="21" viewBox="0 0 20 21" fill="none" xmlns="http://www.w3.org/2000/svg">
<path d="M11.5265 13.8968C11.6986 13.9759 11.8925 13.9939 12.0762 13.948C12.26 13.9021 12.4226 13.795 12.5373 13.6443L12.8332 13.2568C12.9884 13.0498 13.1897 12.8818 13.4211 12.7661C13.6526 12.6504 13.9078 12.5902 14.1665 12.5902H16.6665C17.1085 12.5902 17.5325 12.7658 17.845 13.0783C18.1576 13.3909 18.3332 13.8148 18.3332 14.2568V16.7568C18.3332 17.1989 18.1576 17.6228 17.845 17.9353C17.5325 18.2479 17.1085 18.4235 16.6665 18.4235C12.6883 18.4235 8.87295 16.8431 6.0599 14.0301C3.24686 11.2171 1.6665 7.40175 1.6665 3.4235C1.6665 2.98148 1.8421 2.55755 2.15466 2.24499C2.46722 1.93243 2.89114 1.75684 3.33317 1.75684H5.83317C6.2752 1.75684 6.69912 1.93243 7.01168 2.24499C7.32424 2.55755 7.49984 2.98148 7.49984 3.4235V5.9235C7.49984 6.18224 7.4396 6.43743 7.32388 6.66886C7.20817 6.90028 7.04016 7.10159 6.83317 7.25684L6.44317 7.54934C6.29018 7.66615 6.18235 7.83232 6.138 8.01963C6.09364 8.20693 6.11549 8.40382 6.19984 8.57684C7.33874 10.8901 9.21186 12.7608 11.5265 13.8968Z" stroke="#16A34A" stroke-width="1.66667" stroke-linecap="round" stroke-linejoin="round"/>
</svg>
