<svg width="20" height="21" viewBox="0 0 20 21" fill="none" xmlns="http://www.w3.org/2000/svg">
<path d="M16.6668 8.9235C16.6668 13.0843 12.051 17.4177 10.501 18.756C10.3566 18.8646 10.1808 18.9233 10.0002 18.9233C9.8195 18.9233 9.64373 18.8646 9.49933 18.756C7.94933 17.4177 3.3335 13.0843 3.3335 8.9235C3.3335 7.15539 4.03588 5.4597 5.28612 4.20946C6.53636 2.95921 8.23205 2.25684 10.0002 2.25684C11.7683 2.25684 13.464 2.95921 14.7142 4.20946C15.9645 5.4597 16.6668 7.15539 16.6668 8.9235Z" stroke="#16A34A" stroke-width="1.66667" stroke-linecap="round" stroke-linejoin="round"/>
<path d="M10 11.4229C11.3807 11.4229 12.5 10.3036 12.5 8.92285C12.5 7.54214 11.3807 6.42285 10 6.42285C8.61929 6.42285 7.5 7.54214 7.5 8.92285C7.5 10.3036 8.61929 11.4229 10 11.4229Z" stroke="#16A34A" stroke-width="1.66667" stroke-linecap="round" stroke-linejoin="round"/>
</svg>
