<svg width="25" height="24" viewBox="0 0 25 24" fill="none" xmlns="http://www.w3.org/2000/svg">
<path d="M11.8801 20C10.1242 20.0053 8.43036 19.3505 7.13462 18.1654C5.83889 16.9803 5.03587 15.3515 4.88484 13.6021C4.73381 11.8527 5.2458 10.1104 6.31926 8.72074C7.39271 7.33112 8.94923 6.3957 10.6801 6.1C16.3801 5 17.8801 4.48 19.8801 2C20.8801 4 21.8801 6.18 21.8801 10C21.8801 15.5 17.1001 20 11.8801 20Z" stroke="#16A34A" stroke-width="2" stroke-linecap="round" stroke-linejoin="round"/>
<path d="M2.87988 21C2.87988 18 4.72988 15.64 7.95988 15C10.3799 14.52 12.8799 13 13.8799 12" stroke="#16A34A" stroke-width="2" stroke-linecap="round" stroke-linejoin="round"/>
</svg>
