<svg width="32" height="33" viewBox="0 0 32 33" fill="none" xmlns="http://www.w3.org/2000/svg">
<path d="M18.6665 3.44678V11.4468C18.6663 11.8941 18.7786 12.3343 18.9931 12.7268L26.3398 26.1668C26.562 26.5729 26.6747 27.0299 26.6667 27.4928C26.6587 27.9557 26.5303 28.4086 26.2942 28.8068C26.0581 29.205 25.7224 29.5349 25.3201 29.764C24.9178 29.9931 24.4628 30.1136 23.9998 30.1134H7.9998C7.53684 30.1136 7.08182 29.9931 6.67952 29.764C6.27722 29.5349 5.9415 29.205 5.70539 28.8068C5.46928 28.4086 5.34091 27.9557 5.33292 27.4928C5.32492 27.0299 5.43758 26.5729 5.6598 26.1668L13.0065 12.7268C13.221 12.3343 13.3333 11.8941 13.3331 11.4468V3.44678" stroke="#16A34A" stroke-width="2.66667" stroke-linecap="round" stroke-linejoin="round"/>
<path d="M8.604 20.7803H23.396" stroke="#16A34A" stroke-width="2.66667" stroke-linecap="round" stroke-linejoin="round"/>
<path d="M11.3335 3.44678H20.6668" stroke="#16A34A" stroke-width="2.66667" stroke-linecap="round" stroke-linejoin="round"/>
</svg>
