<svg width="15" height="15" viewBox="0 0 15 15" fill="none" xmlns="http://www.w3.org/2000/svg">
<path d="M8.70953 12.7398C8.73169 12.7951 8.77021 12.8422 8.81993 12.8749C8.86966 12.9076 8.92819 12.9243 8.98768 12.9228C9.04718 12.9213 9.10478 12.9016 9.15276 12.8664C9.20074 12.8312 9.2368 12.7821 9.25611 12.7258L13.0478 1.64251C13.0664 1.59082 13.07 1.53488 13.058 1.48125C13.0461 1.42761 13.0191 1.37849 12.9802 1.33963C12.9414 1.30077 12.8923 1.27378 12.8386 1.26182C12.785 1.24986 12.729 1.25342 12.6774 1.27209L1.59403 5.06376C1.53773 5.08306 1.48869 5.11912 1.45348 5.16711C1.41828 5.21509 1.39859 5.27269 1.39707 5.33218C1.39554 5.39167 1.41226 5.45021 1.44496 5.49993C1.47766 5.54965 1.52479 5.58818 1.58003 5.61034L6.20586 7.46534C6.35209 7.52389 6.48496 7.61144 6.59644 7.72272C6.70792 7.83401 6.79571 7.96671 6.85453 8.11284L8.70953 12.7398Z" stroke="white" stroke-width="1.16667" stroke-linecap="round" stroke-linejoin="round"/>
<path d="M12.9783 1.3418L6.59668 7.72288" stroke="white" stroke-width="1.16667" stroke-linecap="round" stroke-linejoin="round"/>
</svg>
