<svg width="24" height="25" viewBox="0 0 24 25" fill="none" xmlns="http://www.w3.org/2000/svg">
<path d="M20 13.8208C20 18.8208 16.5 21.3208 12.34 22.7708C12.1222 22.8446 11.8855 22.841 11.67 22.7608C7.5 21.3208 4 18.8208 4 13.8208V6.82076C4 6.55555 4.10536 6.30119 4.29289 6.11366C4.48043 5.92612 4.73478 5.82076 5 5.82076C7 5.82076 9.5 4.62076 11.24 3.10076C11.4519 2.91976 11.7214 2.82031 12 2.82031C12.2786 2.82031 12.5481 2.91976 12.76 3.10076C14.51 4.63076 17 5.82076 19 5.82076C19.2652 5.82076 19.5196 5.92612 19.7071 6.11366C19.8946 6.30119 20 6.55555 20 6.82076V13.8208Z" stroke="white" stroke-width="2" stroke-linecap="round" stroke-linejoin="round"/>
<path d="M9 12.8203L11 14.8203L15 10.8203" stroke="white" stroke-width="2" stroke-linecap="round" stroke-linejoin="round"/>
</svg>
