<svg width="24" height="25" viewBox="0 0 24 25" fill="none" xmlns="http://www.w3.org/2000/svg">
<path d="M11.017 3.7246C11.0598 3.4952 11.1815 3.28801 11.3611 3.13892C11.5406 2.98982 11.7666 2.9082 12 2.9082C12.2333 2.9082 12.4593 2.98982 12.6389 3.13892C12.8184 3.28801 12.9401 3.4952 12.983 3.7246L14.034 9.2826C14.1086 9.67775 14.3006 10.0412 14.585 10.3256C14.8693 10.6099 15.2328 10.802 15.628 10.8766L21.186 11.9276C21.4153 11.9704 21.6225 12.0922 21.7716 12.2717C21.9207 12.4512 22.0023 12.6772 22.0023 12.9106C22.0023 13.144 21.9207 13.37 21.7716 13.5495C21.6225 13.729 21.4153 13.8508 21.186 13.8936L15.628 14.9446C15.2328 15.0192 14.8693 15.2113 14.585 15.4956C14.3006 15.78 14.1086 16.1434 14.034 16.5386L12.983 22.0966C12.9401 22.326 12.8184 22.5332 12.6389 22.6823C12.4593 22.8314 12.2333 22.913 12 22.913C11.7666 22.913 11.5406 22.8314 11.3611 22.6823C11.1815 22.5332 11.0598 22.326 11.017 22.0966L9.96595 16.5386C9.89131 16.1434 9.69928 15.78 9.41492 15.4956C9.13057 15.2113 8.7671 15.0192 8.37195 14.9446L2.81395 13.8936C2.58456 13.8508 2.37737 13.729 2.22827 13.5495C2.07917 13.37 1.99756 13.144 1.99756 12.9106C1.99756 12.6772 2.07917 12.4512 2.22827 12.2717C2.37737 12.0922 2.58456 11.9704 2.81395 11.9276L8.37195 10.8766C8.7671 10.802 9.13057 10.6099 9.41492 10.3256C9.69928 10.0412 9.89131 9.67775 9.96595 9.2826L11.017 3.7246Z" stroke="white" stroke-width="2" stroke-linecap="round" stroke-linejoin="round"/>
<path d="M20 2.91016V6.91016" stroke="white" stroke-width="2" stroke-linecap="round" stroke-linejoin="round"/>
<path d="M22 4.91016H18" stroke="white" stroke-width="2" stroke-linecap="round" stroke-linejoin="round"/>
<path d="M4 22.9102C5.10457 22.9102 6 22.0147 6 20.9102C6 19.8056 5.10457 18.9102 4 18.9102C2.89543 18.9102 2 19.8056 2 20.9102C2 22.0147 2.89543 22.9102 4 22.9102Z" stroke="white" stroke-width="2" stroke-linecap="round" stroke-linejoin="round"/>
</svg>
