<svg width="21" height="21" viewBox="0 0 21 21" fill="none" xmlns="http://www.w3.org/2000/svg">
<path d="M10.044 2.00258C10.0805 1.9288 10.1369 1.86669 10.2069 1.82327C10.2768 1.77985 10.3575 1.75684 10.4398 1.75684C10.5221 1.75684 10.6028 1.77985 10.6728 1.82327C10.7427 1.86669 10.7991 1.9288 10.8356 2.00258L12.7606 5.90175C12.8875 6.15839 13.0747 6.38042 13.3062 6.54879C13.5377 6.71716 13.8066 6.82684 14.0898 6.86841L18.3948 7.49841C18.4764 7.51023 18.553 7.54464 18.6161 7.59775C18.6791 7.65085 18.726 7.72054 18.7515 7.79892C18.777 7.8773 18.78 7.96125 18.7603 8.04128C18.7406 8.1213 18.6988 8.19421 18.6398 8.25175L15.5265 11.2834C15.3212 11.4835 15.1675 11.7305 15.0788 12.0031C14.9901 12.2757 14.969 12.5658 15.0173 12.8484L15.7523 17.1317C15.7667 17.2133 15.7579 17.2972 15.7269 17.374C15.6959 17.4508 15.6439 17.5173 15.5769 17.5659C15.5099 17.6146 15.4306 17.6434 15.348 17.6492C15.2654 17.6549 15.1829 17.6373 15.1098 17.5984L11.2615 15.5751C11.0079 15.4419 10.7258 15.3724 10.4394 15.3724C10.153 15.3724 9.87088 15.4419 9.61731 15.5751L5.76981 17.5984C5.69676 17.6371 5.61431 17.6545 5.53186 17.6486C5.4494 17.6428 5.37025 17.6139 5.30339 17.5653C5.23654 17.5166 5.18467 17.4502 5.15369 17.3736C5.12271 17.297 5.11386 17.2132 5.12815 17.1317L5.86231 12.8492C5.91081 12.5665 5.8898 12.2762 5.8011 12.0035C5.71239 11.7307 5.55865 11.4835 5.35315 11.2834L2.23981 8.25258C2.18031 8.19511 2.13814 8.12208 2.11812 8.04181C2.09809 7.96154 2.10101 7.87726 2.12655 7.79857C2.15208 7.71988 2.1992 7.64995 2.26254 7.59673C2.32589 7.54352 2.4029 7.50916 2.48481 7.49758L6.78898 6.86841C7.07253 6.82716 7.3418 6.71763 7.57363 6.54924C7.80546 6.38084 7.9929 6.15864 8.11981 5.90175L10.044 2.00258Z" stroke="#16A34A" stroke-width="1.66667" stroke-linecap="round" stroke-linejoin="round"/>
</svg>
