<svg width="32" height="33" viewBox="0 0 32 33" fill="none" xmlns="http://www.w3.org/2000/svg">
<path d="M18.6665 24.7804V8.78044C18.6665 8.07319 18.3856 7.39492 17.8855 6.89482C17.3854 6.39472 16.7071 6.11377 15.9998 6.11377H5.33317C4.62593 6.11377 3.94765 6.39472 3.44755 6.89482C2.94746 7.39492 2.6665 8.07319 2.6665 8.78044V23.4471C2.6665 23.8007 2.80698 24.1399 3.05703 24.3899C3.30708 24.64 3.64622 24.7804 3.99984 24.7804H6.6665" stroke="#16A34A" stroke-width="2.66667" stroke-linecap="round" stroke-linejoin="round"/>
<path d="M20 24.7803H12" stroke="#16A34A" stroke-width="2.66667" stroke-linecap="round" stroke-linejoin="round"/>
<path d="M25.3332 24.7801H27.9998C28.3535 24.7801 28.6926 24.6396 28.9426 24.3896C29.1927 24.1395 29.3332 23.8004 29.3332 23.4468V18.5801C29.3326 18.2775 29.2292 17.9841 29.0398 17.7481L24.3998 11.9481C24.2751 11.792 24.1169 11.6658 23.9369 11.579C23.7569 11.4923 23.5597 11.4471 23.3598 11.4468H18.6665" stroke="#16A34A" stroke-width="2.66667" stroke-linecap="round" stroke-linejoin="round"/>
<path d="M22.6667 27.4471C24.1394 27.4471 25.3333 26.2532 25.3333 24.7804C25.3333 23.3077 24.1394 22.1138 22.6667 22.1138C21.1939 22.1138 20 23.3077 20 24.7804C20 26.2532 21.1939 27.4471 22.6667 27.4471Z" stroke="#16A34A" stroke-width="2.66667" stroke-linecap="round" stroke-linejoin="round"/>
<path d="M9.33317 27.4471C10.8059 27.4471 11.9998 26.2532 11.9998 24.7804C11.9998 23.3077 10.8059 22.1138 9.33317 22.1138C7.86041 22.1138 6.6665 23.3077 6.6665 24.7804C6.6665 26.2532 7.86041 27.4471 9.33317 27.4471Z" stroke="#16A34A" stroke-width="2.66667" stroke-linecap="round" stroke-linejoin="round"/>
</svg>
