<svg width="25" height="25" viewBox="0 0 25 25" fill="none" xmlns="http://www.w3.org/2000/svg">
<path d="M16.25 21.4707V19.4707C16.25 18.4098 15.8286 17.3924 15.0784 16.6423C14.3283 15.8921 13.3109 15.4707 12.25 15.4707H6.25C5.18913 15.4707 4.17172 15.8921 3.42157 16.6423C2.67143 17.3924 2.25 18.4098 2.25 19.4707V21.4707" stroke="#16A34A" stroke-width="2" stroke-linecap="round" stroke-linejoin="round"/>
<path d="M16.25 3.59863C17.1078 3.821 17.8674 4.3219 18.4097 5.0227C18.952 5.72349 19.2462 6.58452 19.2462 7.47063C19.2462 8.35674 18.952 9.21777 18.4097 9.91857C17.8674 10.6194 17.1078 11.1203 16.25 11.3426" stroke="#16A34A" stroke-width="2" stroke-linecap="round" stroke-linejoin="round"/>
<path d="M22.25 21.4706V19.4706C22.2493 18.5843 21.9544 17.7234 21.4114 17.0229C20.8684 16.3224 20.1081 15.8222 19.25 15.6006" stroke="#16A34A" stroke-width="2" stroke-linecap="round" stroke-linejoin="round"/>
<path d="M9.25 11.4707C11.4591 11.4707 13.25 9.67984 13.25 7.4707C13.25 5.26156 11.4591 3.4707 9.25 3.4707C7.04086 3.4707 5.25 5.26156 5.25 7.4707C5.25 9.67984 7.04086 11.4707 9.25 11.4707Z" stroke="#16A34A" stroke-width="2" stroke-linecap="round" stroke-linejoin="round"/>
</svg>
