<svg width="32" height="33" viewBox="0 0 32 33" fill="none" xmlns="http://www.w3.org/2000/svg">
<path d="M21.3332 28.6904V26.0238C21.3332 24.6093 20.7713 23.2527 19.7711 22.2525C18.7709 21.2523 17.4143 20.6904 15.9998 20.6904H7.99984C6.58535 20.6904 5.2288 21.2523 4.2286 22.2525C3.22841 23.2527 2.6665 24.6093 2.6665 26.0238V28.6904" stroke="white" stroke-width="2.66667" stroke-linecap="round" stroke-linejoin="round"/>
<path d="M21.3335 4.86133C22.4772 5.15782 23.49 5.82568 24.2131 6.76008C24.9361 7.69448 25.3284 8.84251 25.3284 10.024C25.3284 11.2055 24.9361 12.3535 24.2131 13.2879C23.49 14.2223 22.4772 14.8902 21.3335 15.1867" stroke="white" stroke-width="2.66667" stroke-linecap="round" stroke-linejoin="round"/>
<path d="M29.3335 28.6899V26.0233C29.3326 24.8416 28.9393 23.6936 28.2153 22.7597C27.4913 21.8258 26.4777 21.1587 25.3335 20.8633" stroke="white" stroke-width="2.66667" stroke-linecap="round" stroke-linejoin="round"/>
<path d="M11.9998 15.3571C14.9454 15.3571 17.3332 12.9693 17.3332 10.0238C17.3332 7.07824 14.9454 4.69043 11.9998 4.69043C9.05432 4.69043 6.6665 7.07824 6.6665 10.0238C6.6665 12.9693 9.05432 15.3571 11.9998 15.3571Z" stroke="white" stroke-width="2.66667" stroke-linecap="round" stroke-linejoin="round"/>
</svg>
